<?xml version="1.0" encoding="iso-8859-1"?>
<!-- Generator: Adobe Illustrator 21.0.0, SVG Export Plug-In . SVG Version: 6.00 Build 0)  -->
<svg version="1.1" id="Capa_1" xmlns="http://www.w3.org/2000/svg" xmlns:xlink="http://www.w3.org/1999/xlink" x="0px" y="0px"
	 viewBox="0 0 512 512" style="enable-background:new 0 0 512 512;" xml:space="preserve">
<path style="fill:#BDFDFF;" d="M478.154,451.776l-126.259-238.24c-33.246-62.735-24.897-116.896-26.16-130.633
	c0-8.409-6.817-15.226-15.226-15.226H201.492c-8.409,0-15.226,6.817-15.226,15.226c-1.27,13.81,7.09,67.891-26.16,130.634
	L33.85,451.773c-14.502,27.343,5.338,60.226,36.24,60.226h371.823C472.85,511.999,492.634,479.08,478.154,451.776z"/>
<path style="fill:#9BFBFF;" d="M441.91,512h-185.91V67.675h54.509c8.405,0,15.226,6.821,15.226,15.226
	c1.269,13.797-7.087,67.895,26.158,130.639l126.264,238.236C492.626,479.049,472.869,512,441.91,512z"/>
<path style="fill:#46F8FF;" d="M339.307,0.001H172.694c-8.409,0-15.226,6.817-15.226,15.226v67.672
	c0,8.409,6.817,15.226,15.226,15.226h166.613c8.409,0,15.226-6.817,15.226-15.226V15.227C354.533,6.818,347.716,0.001,339.307,0.001
	z"/>
<path style="fill:#00CC76;" d="M210.379,450.34c-4.148-7.316-1.579-16.608,5.736-20.755c1.08-1.002,24.658-10.162,24.658-37.231
	v-90.473c0-8.409,6.817-15.226,15.226-15.226c8.409,0,15.226,6.817,15.226,15.226v90.474c0,45.428-39.437,63.094-40.092,63.721
	C228.763,457.42,214.536,457.669,210.379,450.34z"/>
<path style="fill:#00E7F0;" d="M354.533,15.226v67.675c0,8.405-6.821,15.226-15.226,15.226h-83.307V0h83.307
	C347.712,0,354.533,6.821,354.533,15.226z"/>
<path style="fill:#76F08A;" d="M267.898,196.185c-6.089-7.627-17.704-7.631-23.796,0c-23.848,29.866-63.735,90.194-63.735,129.946
	c0,47.1,26.86,73.04,75.633,73.04s75.633-25.94,75.633-73.04C331.633,286.106,291.262,225.442,267.898,196.185z"/>
<path style="fill:#00DD80;" d="M331.633,326.131c0,47.17-26.942,73.044-75.633,73.044V190.457c4.629,0,9.014,2.111,11.897,5.725
	C291.966,226.357,331.633,286.46,331.633,326.131z"/>
<g>
</g>
<g>
</g>
<g>
</g>
<g>
</g>
<g>
</g>
<g>
</g>
<g>
</g>
<g>
</g>
<g>
</g>
<g>
</g>
<g>
</g>
<g>
</g>
<g>
</g>
<g>
</g>
<g>
</g>
</svg>
